HIERARCHY
ROOT Hips
{
	OFFSET 0.00000 0.00000 0.00000
	CHANNELS 6 Xposition Yposition Zposition Zrotation Yrotation Xrotation 
	JOINT LHipJoint
	{
		OFFSET 0 0 0
		CHANNELS 3 Zrotation Yrotation Xrotation
		JOINT LeftUpLeg
		{
			OFFSET 1.62964 -1.40469 0.78906
			CHANNELS 3 Zrotation Yrotation Xrotation
			JOINT LeftLeg
			{
				OFFSET 2.29640 -6.30932 0.00000
				CHANNELS 3 Zrotation Yrotation Xrotation
				JOINT LeftFoot
				{
					OFFSET 2.29451 -6.30412 0.00000
					CHANNELS 3 Zrotation Yrotation Xrotation
					JOINT LeftToeBase
					{
						OFFSET 0.03611 -0.09921 1.56387
						CHANNELS 3 Zrotation Yrotation Xrotation
						End Site
						{
							OFFSET 0.00000 -0.00000 0.80291
						}
					}
				}
			}
		}
	}
	JOINT RHipJoint
	{
		OFFSET 0 0 0
		CHANNELS 3 Zrotation Yrotation Xrotation
		JOINT RightUpLeg
		{
			OFFSET -1.73712 -1.40469 0.78906
			CHANNELS 3 Zrotation Yrotation Xrotation
			JOINT RightLeg
			{
				OFFSET -2.28137 -6.26801 0.00000
				CHANNELS 3 Zrotation Yrotation Xrotation
				JOINT RightFoot
				{
					OFFSET -2.28681 -6.28298 0.00000
					CHANNELS 3 Zrotation Yrotation Xrotation
					JOINT RightToeBase
					{
						OFFSET -0.15927 -0.43759 1.61103
						CHANNELS 3 Zrotation Yrotation Xrotation
						End Site
						{
							OFFSET -0.00000 -0.00000 0.84630
						}
					}
				}
			}
		}
	}
	JOINT LowerBack
	{
		OFFSET 0 0 0
		CHANNELS 3 Zrotation Yrotation Xrotation
		JOINT Spine
		{
			OFFSET -0.04227 2.04338 -0.00225
			CHANNELS 3 Zrotation Yrotation Xrotation
			JOINT Spine1
			{
				OFFSET -0.02148 2.04482 -0.04273
				CHANNELS 3 Zrotation Yrotation Xrotation
				JOINT Neck
				{
					OFFSET 0 0 0
					CHANNELS 3 Zrotation Yrotation Xrotation
					JOINT Neck1
					{
						OFFSET 0.09180 1.44629 0.19359
						CHANNELS 3 Zrotation Yrotation Xrotation
						JOINT Head
						{
							OFFSET 0.00887 1.40645 0.14750
							CHANNELS 3 Zrotation Yrotation Xrotation
							End Site
							{
								OFFSET -0.00669 1.50671 0.03707
							}
						}
					}
				}
				JOINT LeftShoulder
				{
					OFFSET 0 0 0
					CHANNELS 3 Zrotation Yrotation Xrotation
					JOINT LeftArm
					{
						OFFSET 2.17674 1.86763 -0.06520
						CHANNELS 3 Zrotation Yrotation Xrotation
						JOINT LeftForeArm
						{
							OFFSET 4.65776 -0.00000 0.00000
							CHANNELS 3 Zrotation Yrotation Xrotation
							JOINT LeftHand
							{
								OFFSET 3.55539 -0.00000 0.00000
								CHANNELS 3 Zrotation Yrotation Xrotation
								JOINT LeftFingerBase
								{
									OFFSET 0 0 0
									CHANNELS 3 Zrotation Yrotation Xrotation
									JOINT LeftHandIndex1
									{
										OFFSET 0.70726 -0.00000 0.00000
										CHANNELS 3 Zrotation Yrotation Xrotation
										End Site
										{
											OFFSET 0.57022 -0.00000 0.00000
										}
									}
								}
								JOINT LThumb
								{
									OFFSET 0 0 0
									CHANNELS 3 Zrotation Yrotation Xrotation
									End Site
									{
										OFFSET 0.57892 -0.00000 0.57892
									}
								}
							}
						}
					}
				}
				JOINT RightShoulder
				{
					OFFSET 0 0 0
					CHANNELS 3 Zrotation Yrotation Xrotation
					JOINT RightArm
					{
						OFFSET -2.80694 1.55459 -0.32496
						CHANNELS 3 Zrotation Yrotation Xrotation
						JOINT RightForeArm
						{
							OFFSET -4.71925 -0.00000 -0.00000
							CHANNELS 3 Zrotation Yrotation Xrotation
							JOINT RightHand
							{
								OFFSET -3.56990 -0.00000 0.00000
								CHANNELS 3 Zrotation Yrotation Xrotation
								JOINT RightFingerBase
								{
									OFFSET 0 0 0
									CHANNELS 3 Zrotation Yrotation Xrotation
									JOINT RightHandIndex1
									{
										OFFSET -0.50776 -0.00000 0.00000
										CHANNELS 3 Zrotation Yrotation Xrotation
										End Site
										{
											OFFSET -0.40937 -0.00000 0.00000
										}
									}
								}
								JOINT RThumb
								{
									OFFSET 0 0 0
									CHANNELS 3 Zrotation Yrotation Xrotation
									End Site
									{
										OFFSET -0.41562 -0.00000 0.41562
									}
								}
							}
						}
					}
				}
			}
		}
	}
}
MOTION
Frames: 15
Frame Time: .0083333
8.9731 16.0207 32.2282 180.6450 -1.8052 -147.3420 0.0000 0.0000 0.0000 -6.7758 -25.7256 -42.7441 2.7956 10.3566 30.1394 1.1694 -2.0533 -19.8632 4.3792 -12.6486 -38.0670 0.0000 0.0000 0.0000 12.7503 22.5451 -39.9702 -2.2395 -9.3481 26.8903 -2.3451 -0.9949 -29.3537 -2.2730 9.4129 -27.0958 -2.2486 -1.3441 -12.2812 0.3669 -1.5457 0.2670 1.3710 -0.8668 7.2552 -1.8528 -2.8782 -1.4337 5.9827 -1.1885 -20.5695 2.1828 -0.0355 -5.9016 0.0000 -0.0000 0.0000 -68.5753 20.0576 40.9196 18.8830 -29.2731 -4.9735 -0.0000 0.0000 -4.9012 21.6148 -13.9914 -5.4721 -7.1250 0.0000 -0.0000 -3.9720 15.0013 2.8154 0.0000 -0.0000 0.0000 83.3647 -20.1588 6.0753 -12.9311 21.1861 -2.4283 0.0000 0.0000 6.6859 -10.5711 -48.1693 7.9165 7.1250 -0.0000 -0.0000 51.7453 -73.0915 -36.9408
8.9757 15.9771 32.2473 180.6100 -1.8062 -146.8810 0.0000 0.0000 0.0000 -6.3160 -25.8395 -44.4192 3.1092 10.8698 31.8420 1.2420 -2.5047 -20.3891 4.5024 -12.8006 -38.6265 0.0000 0.0000 0.0000 12.3130 22.8326 -41.4457 -2.4949 -9.8287 28.4237 -2.4440 -1.0612 -29.9858 -2.3873 9.6301 -27.7869 -2.1903 -1.3858 -12.3421 0.3518 -1.5903 0.6185 1.3089 -0.8863 7.6665 -1.7214 -3.0269 -1.4486 5.9041 -1.2459 -21.3731 2.1422 -0.0170 -6.1549 0.0000 -0.0000 0.0000 -68.3835 20.1927 41.2572 19.0835 -29.5223 -5.0719 -0.0000 0.0000 -5.2543 21.8135 -14.1673 -5.5949 -7.1250 0.0000 -0.0000 -3.8449 14.7927 2.7420 0.0000 -0.0000 0.0000 83.3629 -19.9811 5.5834 -12.8420 21.0553 -2.3962 0.0000 0.0000 6.8892 -10.2116 -47.6341 7.5812 7.1250 -0.0000 -0.0000 50.5828 -72.6591 -35.5828
8.9777 15.9291 32.2652 180.6300 -1.7610 -146.4800 0.0000 0.0000 0.0000 -5.8560 -25.8668 -46.0257 3.4320 11.3636 33.5161 1.3132 -3.1086 -20.8635 4.2645 -12.5043 -37.5403 0.0000 0.0000 0.0000 11.9835 22.9742 -42.9739 -2.7886 -10.3448 30.1006 -2.5570 -0.8874 -30.6058 -2.4621 9.7687 -28.2310 -2.0892 -1.4173 -11.7400 0.3790 -1.6584 0.6055 1.2809 -0.9118 7.3110 -1.7541 -3.1449 -1.4753 5.9100 -1.3461 -21.7248 2.1560 -0.0415 -6.2579 -0.0000 0.0000 0.0000 -68.3212 20.9947 41.4617 19.4015 -29.9145 -5.2296 -0.0000 0.0000 -5.4443 21.5942 -13.8574 -5.4154 -7.1250 0.0000 -0.0000 -3.9797 15.1458 2.8086 -0.0000 0.0000 0.0000 83.1412 -20.5208 5.7699 -12.9193 21.1688 -2.4241 0.0000 0.0000 6.6475 -9.9827 -47.7780 7.4265 7.1250 -0.0000 -0.0000 51.1663 -72.6585 -36.0480
8.9773 15.8604 32.2818 180.6620 -1.6721 -145.6440 0.0000 0.0000 0.0000 -5.2142 -25.8817 -48.1055 3.7649 11.8409 35.1713 1.3764 -3.4444 -21.3182 4.1894 -12.4083 -37.1921 0.0000 0.0000 0.0000 11.5590 22.9830 -45.0670 -3.0846 -10.8307 31.7110 -2.6352 -0.6352 -30.9833 -2.6179 10.0492 -29.1362 -2.0445 -1.3731 -11.6242 0.4302 -1.6175 0.4491 1.3213 -0.8902 7.0767 -1.7348 -3.2468 -1.4910 5.8464 -1.4420 -22.0270 2.1383 -0.0652 -6.3493 -0.0000 -0.0000 0.0000 -68.2033 21.7765 41.9079 19.7592 -30.3511 -5.4091 -0.0000 0.0000 -5.6599 21.3650 -13.8658 -5.3558 -7.1250 0.0000 -0.0000 -4.1369 15.1611 2.9187 -0.0000 -0.0000 0.0000 82.9608 -21.2159 6.0231 -13.0667 21.3849 -2.4776 0.0000 0.0000 6.1371 -9.9530 -48.2680 7.4607 7.1250 -0.0000 -0.0000 52.5347 -72.9203 -37.4099
8.9810 15.7935 32.2969 180.6420 -1.6541 -145.0300 0.0000 0.0000 0.0000 -4.8184 -25.8308 -49.8717 4.1038 12.2972 36.7917 1.4203 -3.3462 -21.6867 4.6383 -12.9645 -39.2356 0.0000 0.0000 0.0000 11.3330 22.7907 -46.8235 -3.3571 -11.2519 33.1340 -2.7092 -0.4178 -31.3442 -2.8329 10.4196 -30.3464 -1.9517 -1.3144 -11.4943 0.3579 -1.5462 0.5124 1.2073 -0.8497 7.0629 -1.6003 -3.3909 -1.4801 5.8164 -1.5613 -22.4371 2.1136 -0.1032 -6.4810 -0.0000 0.0000 0.0000 -67.8303 22.2338 42.4423 20.0611 -30.7159 -5.5625 -0.0000 0.0000 -5.9715 21.3470 -14.1563 -5.4600 -7.1250 0.0000 -0.0000 -4.1626 14.8550 2.9642 -0.0000 0.0000 0.0000 83.1840 -21.4155 5.5161 -13.0522 21.3637 -2.4723 0.0000 0.0000 6.1705 -10.0817 -48.4071 7.5742 7.1250 -0.0000 -0.0000 52.8185 -73.0428 -37.7629
8.9865 15.7234 32.3146 180.4860 -1.5075 -144.5210 0.0000 0.0000 0.0000 -4.6481 -25.7501 -51.5399 4.4539 12.7411 38.4068 1.4774 -3.5805 -22.0935 4.8485 -13.2111 -40.1639 0.0000 0.0000 0.0000 10.8220 22.7840 -48.5426 -3.6976 -11.7468 34.8419 -2.8316 -0.0736 -31.9384 -2.8570 10.4600 -30.4794 -2.1391 -1.2906 -10.8969 0.2993 -1.5003 0.3900 1.2721 -0.8289 6.5959 -1.5555 -3.4797 -1.4922 5.7705 -1.6548 -22.6336 2.0965 -0.1347 -6.5401 0.0000 -0.0000 0.0000 -67.5784 22.9676 42.9662 20.3667 -31.0816 -5.7195 -0.0000 0.0000 -6.3320 21.3426 -14.1175 -5.4442 -7.1250 0.0000 -0.0000 -4.1638 14.8967 2.9614 0.0000 -0.0000 0.0000 83.2808 -21.9023 5.1062 -13.0669 21.3852 -2.4776 0.0000 0.0000 6.3922 -10.2135 -48.5563 7.6917 7.1250 -0.0000 -0.0000 53.1342 -73.1713 -38.1492
8.9910 15.6506 32.3321 180.3620 -1.3543 -144.1620 0.0000 0.0000 0.0000 -4.4702 -25.6751 -52.9814 4.8040 13.1596 39.9688 1.5541 -4.4377 -22.5482 4.5471 -12.8548 -38.8275 0.0000 0.0000 0.0000 10.3275 22.8641 -50.0154 -4.0554 -12.2337 36.5638 -2.9453 0.3197 -32.4601 -2.7839 10.3368 -30.0743 -2.3732 -1.2631 -10.5086 0.2644 -1.4315 0.5660 1.3843 -0.8006 6.5652 -1.4067 -3.7315 -1.3057 5.8039 -1.8312 -23.5269 2.0986 -0.1825 -6.8580 0.0000 -0.0000 0.0000 -67.4189 23.3137 43.2957 20.6692 -31.4401 -5.8764 -0.0000 0.0000 -6.6272 21.3127 -14.2247 -5.4760 -7.1250 0.0000 -0.0000 -4.1891 14.7863 2.9894 0.0000 -0.0000 0.0000 83.2925 -22.0744 4.9892 -13.1183 21.4603 -2.4964 0.0000 0.0000 6.4220 -10.1191 -48.6737 7.6336 7.1250 -0.0000 -0.0000 53.5462 -73.1991 -38.5144
8.9924 15.5605 32.3491 180.4020 -1.1381 -143.3370 0.0000 0.0000 0.0000 -3.8635 -25.5247 -55.1239 5.2108 13.6173 41.7257 1.6255 -5.0100 -23.0069 4.4420 -12.7265 -38.3530 0.0000 0.0000 0.0000 9.7424 23.1186 -52.1474 -4.4530 -12.7400 38.4028 -3.0329 0.6503 -32.8507 -2.7909 10.3485 -30.1129 -2.4003 -1.1701 -10.6321 0.2108 -1.2989 0.5595 1.3626 -0.7366 6.6219 -1.1631 -3.9781 -1.2003 5.8442 -2.0217 -24.2230 2.0859 -0.2532 -7.1019 -0.0000 -0.0000 0.0000 -67.2105 23.8771 43.5656 21.0492 -31.8857 -6.0759 -0.0000 0.0000 -6.8692 21.2313 -14.3661 -5.5060 -7.1250 0.0000 -0.0000 -4.2512 14.6453 3.0468 -0.0000 -0.0000 0.0000 83.3966 -22.2811 4.7072 -13.0806 21.4052 -2.4826 0.0000 0.0000 6.5569 -9.9805 -48.4041 7.4972 7.1250 -0.0000 -0.0000 52.8927 -73.0042 -37.7847
8.9960 15.4759 32.3626 180.3240 -0.8974 -142.9270 0.0000 0.0000 0.0000 -3.7238 -25.3545 -56.6074 5.5916 14.0205 43.3198 1.6917 -5.2870 -23.4583 4.7142 -13.0545 -39.5727 0.0000 0.0000 0.0000 9.3172 23.1331 -53.7175 -4.8265 -13.1857 40.0676 -3.1297 0.9672 -33.2922 -2.8940 10.5214 -30.6823 -2.4879 -1.1509 -9.9670 0.1139 -1.2779 0.4189 1.3262 -0.7220 6.0950 -1.0608 -4.0463 -1.2623 5.8245 -2.1077 -24.2626 2.0658 -0.2966 -7.1035 -0.0000 -0.0000 0.0000 -67.0945 24.7733 43.7086 21.3451 -32.2289 -6.2330 -0.0000 0.0000 -6.9929 21.3164 -14.5308 -5.5917 -7.1250 0.0000 -0.0000 -4.2012 14.4615 3.0272 -0.0000 -0.0000 0.0000 83.4692 -22.7297 4.4924 -13.0178 21.3133 -2.4598 0.0000 0.0000 6.9134 -9.8323 -48.0429 7.3439 7.1250 -0.0000 -0.0000 52.0135 -72.7526 -36.8213
8.9988 15.3734 32.3834 180.4980 -0.4390 -141.8240 0.0000 0.0000 0.0000 -3.0020 -24.9634 -59.1027 6.0391 14.4661 45.1383 1.7704 -5.5241 -23.9942 4.8567 -13.2206 -40.2000 0.0000 0.0000 0.0000 8.6953 23.5147 -56.2566 -5.2654 -13.6765 41.9569 -3.2406 1.4988 -33.7489 -2.9851 10.6709 -31.1780 -2.5695 -0.9735 -10.4214 0.1177 -1.0216 0.4199 1.4091 -0.6025 6.3436 -1.0361 -4.1997 -1.1290 5.7560 -2.1810 -25.0675 2.0501 -0.2751 -7.3930 -0.0000 -0.0000 0.0000 -67.1793 24.7979 43.8154 21.3642 -32.2510 -6.2431 -0.0000 0.0000 -7.0132 21.5736 -14.7671 -5.7550 -7.1250 0.0000 -0.0000 -4.0385 14.1822 2.9334 -0.0000 -0.0000 0.0000 83.4824 -22.6579 4.2544 -12.9708 21.2444 -2.4427 0.0000 0.0000 7.0966 -9.8136 -48.3563 7.3653 7.1250 -0.0000 -0.0000 52.8955 -72.9175 -37.7000
9.0036 15.2779 32.3914 180.4220 -0.4713 -141.3470 0.0000 0.0000 0.0000 -2.6437 -24.9592 -60.7573 6.4885 14.8856 46.9120 1.8343 -6.0960 -24.3854 4.7615 -13.1101 -39.7821 0.0000 0.0000 0.0000 8.3415 23.3692 -57.9862 -5.7202 -14.1516 43.8480 -3.3913 1.9666 -34.4298 -3.0070 10.7064 -31.2959 -2.6737 -0.9862 -10.2657 0.2066 -1.0284 0.5421 1.5615 -0.6101 6.3891 -1.1438 -4.2871 -0.8773 5.6732 -2.1916 -25.8518 2.0509 -0.2173 -7.6992 0.0000 0.0000 0.0000 -67.4742 24.8375 43.7129 21.3312 -32.2130 -6.2256 -0.0000 0.0000 -7.1553 21.5923 -14.6085 -5.7003 -7.1250 0.0000 -0.0000 -4.0177 14.3484 2.9040 0.0000 0.0000 0.0000 83.3489 -22.5621 3.9440 -12.8283 21.0352 -2.3913 0.0000 0.0000 7.4684 -10.1143 -48.9938 7.6668 7.1250 -0.0000 -0.0000 54.4775 -73.3644 -39.4485
9.0068 15.1751 32.3926 180.5090 -0.4548 -140.9330 0.0000 0.0000 0.0000 -2.2146 -24.7968 -62.3701 6.9545 15.2934 48.7020 1.8828 -6.2113 -24.7085 4.8765 -13.2433 -40.2862 0.0000 0.0000 0.0000 8.0992 23.4725 -59.5076 -6.1648 -14.5862 45.6398 -3.5403 2.3463 -35.1133 -3.0349 10.7514 -31.4459 -2.6053 -0.9764 -10.0839 0.2641 -1.0284 0.5974 1.5853 -0.6074 6.3444 -1.1274 -4.3651 -0.5952 5.6612 -2.2266 -26.3865 2.0548 -0.2102 -7.9300 0.0000 0.0000 0.0000 -67.7325 25.0553 43.4125 21.3011 -32.1781 -6.2095 -0.0000 0.0000 -7.1960 21.5374 -14.8571 -5.7784 -7.1250 0.0000 -0.0000 -4.0676 14.0910 2.9625 0.0000 0.0000 0.0000 83.3499 -22.4411 3.1734 -12.5723 20.6574 -2.3002 0.0000 0.0000 8.3290 -10.4804 -49.0610 7.9550 7.1250 -0.0000 -0.0000 54.3894 -73.5341 -39.5477
9.0134 15.0705 32.3956 180.6950 -0.5404 -140.3690 0.0000 0.0000 0.0000 -1.5907 -24.5530 -64.2718 7.4842 15.7265 50.6828 1.9226 -6.1535 -24.9843 5.0398 -13.4284 -40.9942 0.0000 0.0000 0.0000 7.8801 23.7618 -61.1175 -6.6038 -14.9890 47.3595 -3.6776 2.6145 -35.7519 -2.9406 10.5982 -30.9366 -2.4205 -0.9870 -10.0234 0.3227 -1.0687 0.6075 1.5372 -0.6213 6.3203 -0.9626 -4.5126 -0.4654 5.7228 -2.3325 -26.8388 2.0591 -0.2543 -8.1068 -0.0000 -0.0000 0.0000 -67.9263 25.3644 43.1255 21.3095 -32.1878 -6.2140 -0.0000 0.0000 -6.9178 22.1504 -15.5617 -6.2326 -7.1250 0.0000 -0.0000 -3.6932 13.2707 2.7527 -0.0000 -0.0000 0.0000 83.3796 -22.3190 2.6886 -12.3566 20.3372 -2.2247 0.0000 0.0000 8.9507 -10.4352 -48.7896 7.8881 7.1250 -0.0000 -0.0000 53.6285 -73.3764 -38.7606
9.0181 14.9638 32.4026 180.8010 -0.5385 -139.8170 0.0000 0.0000 0.0000 -1.0777 -24.3136 -66.1759 8.0418 16.1499 52.7131 1.9694 -6.5638 -25.2638 4.7667 -13.1161 -39.8047 0.0000 0.0000 0.0000 7.5522 23.9578 -62.8174 -7.0865 -15.4043 49.2007 -3.8051 3.0391 -36.2987 -2.7465 10.2728 -29.8649 -2.3686 -0.9904 -9.8810 0.3758 -1.0841 0.6345 1.5631 -0.6270 6.2688 -0.8251 -4.6665 -0.4913 5.7616 -2.4465 -27.2430 2.0576 -0.2908 -8.2401 -0.0000 -0.0000 0.0000 -68.1867 25.5502 42.7081 21.4184 -32.3134 -6.2721 -0.0000 0.0000 -7.1408 22.3460 -15.7014 -6.3478 -7.1250 0.0000 -0.0000 -3.5703 13.0981 2.6736 -0.0000 -0.0000 0.0000 83.3182 -22.1450 2.6184 -12.2251 20.1414 -2.1792 0.0000 0.0000 9.2150 -10.1554 -48.9646 7.6949 7.1250 -0.0000 -0.0000 54.3599 -73.3644 -39.3513
9.0210 14.8534 32.4047 180.7520 -0.5129 -139.4960 0.0000 0.0000 0.0000 -0.7994 -24.2484 -67.7041 8.5680 16.5215 54.5837 2.0069 -7.3239 -25.4628 4.2881 -12.5342 -37.6489 0.0000 0.0000 0.0000 7.3041 23.8061 -64.2236 -7.5675 -15.7917 50.9894 -3.9413 3.5151 -36.8723 -2.6964 10.1866 -29.5831 -2.3219 -1.0028 -9.4229 0.2880 -1.1098 0.6531 1.4469 -0.6334 6.0272 -0.6684 -4.7865 -0.5986 5.7947 -2.5680 -27.3542 2.0479 -0.3508 -8.2584 0.0000 -0.0000 0.0000 -68.2543 25.6646 42.3882 21.4104 -32.3043 -6.2678 -0.0000 0.0000 -7.2762 22.1730 -15.3050 -6.1399 -7.1250 0.0000 -0.0000 -3.6627 13.5410 2.7090 0.0000 -0.0000 0.0000 83.4851 -21.9620 2.2946 -12.0885 19.9372 -2.1324 0.0000 0.0000 9.7819 -10.1009 -49.4035 7.7034 7.1250 -0.0000 -0.0000 55.7028 -73.5664 -40.6736
